<svg data-v-423bf9ae="" xmlns="http://www.w3.org/2000/svg" viewBox="0 0 395 90" class="iconLeftSlogan"><!----><!----><!----><g data-v-423bf9ae="" id="c7428280-c9ca-4973-b107-ee884d28580e" fill="white" transform="matrix(4.225352169431124,0,0,4.225352169431124,109.4084574541202,-14.57746447076213)"><path d="M0.14 14.43L0.14 14.43L0.14 13.83Q0.14 13.73 0.19 13.68L0.19 13.68L4.59 8.54L3.25 8.61Q2.54 8.64 2.04 8.93Q1.54 9.21 1.16 9.82L1.16 9.82L1.09 9.91Q1.03 10.03 0.92 10.03L0.92 10.03Q0.87 10.03 0.81 9.99L0.81 9.99L0.33 9.71Q0.23 9.66 0.22 9.60L0.22 9.60L0.21 9.55Q0.21 9.47 0.25 9.43L0.25 9.43L1.40 7.59Q1.48 7.46 1.59 7.46L1.59 7.46Q1.64 7.46 1.69 7.51L1.69 7.51L1.75 7.57Q1.81 7.64 2.01 7.64L2.01 7.64L7.18 7.64Q7.36 7.64 7.36 7.77L7.36 7.77Q7.36 7.83 7.30 7.90L7.30 7.90L2.38 13.71L3.47 13.68Q4.52 13.64 4.98 13.54L4.98 13.54Q6.13 13.30 6.60 12.48L6.60 12.48L6.64 12.40Q6.71 12.29 6.82 12.29L6.82 12.29Q6.88 12.29 6.93 12.33L6.93 12.33L7.37 12.58Q7.48 12.64 7.48 12.74L7.48 12.74Q7.48 12.81 7.44 12.87L7.44 12.87L6.36 14.71Q6.29 14.83 6.19 14.83L6.19 14.83Q6.14 14.83 6.07 14.78L6.07 14.78L6.00 14.71Q5.91 14.64 5.74 14.64L5.74 14.64L0.35 14.64Q0.14 14.64 0.14 14.43ZM7.90 11.07L7.90 11.07Q7.90 10.01 8.46 9.11Q9.02 8.20 9.99 7.77L9.99 7.77Q10.66 7.47 11.41 7.47L11.41 7.47Q12.47 7.47 13.39 8.07Q14.31 8.66 14.77 9.69L14.77 9.69Q15.09 10.41 15.09 11.22L15.09 11.22Q15.09 12.28 14.53 13.17Q13.97 14.07 13.00 14.51L13.00 14.51Q12.30 14.81 11.57 14.81L11.57 14.81Q10.51 14.81 9.59 14.22Q8.67 13.62 8.22 12.60L8.22 12.60Q7.90 11.87 7.90 11.07ZM9.57 10.19L9.57 10.19Q9.57 10.96 9.96 11.83L9.96 11.83Q10.32 12.63 10.86 13.16Q11.40 13.69 12.01 13.69L12.01 13.69Q12.28 13.69 12.57 13.57L12.57 13.57Q13.42 13.20 13.42 12.09L13.42 12.09Q13.42 11.33 13.03 10.46L13.03 10.46Q12.67 9.65 12.12 9.12Q11.58 8.59 10.97 8.59L10.97 8.59Q10.70 8.59 10.41 8.72L10.41 8.72Q9.57 9.08 9.57 10.19ZM15.59 14.43L15.59 14.43L15.59 14.01Q15.59 13.80 15.79 13.80L15.79 13.80L15.83 13.80Q16.32 13.80 16.58 13.43Q16.84 13.06 16.84 12.47L16.84 12.47L16.84 10.71Q16.84 10.37 16.82 10.14Q16.80 9.92 16.72 9.67Q16.65 9.41 16.47 9.27Q16.29 9.13 16.02 9.10L16.02 9.10Q15.84 9.08 15.85 8.92L15.85 8.92L15.85 8.44Q15.85 8.29 16.05 8.26L16.05 8.26Q16.95 8.11 17.71 7.81Q18.46 7.50 18.83 7.24L18.83 7.24Q18.87 7.21 18.89 7.21L18.89 7.21L18.92 7.21Q18.94 7.21 18.94 7.23L18.94 7.23L18.69 9.06Q19.69 7.46 21.11 7.46L21.11 7.46Q21.69 7.46 22.12 7.62Q22.56 7.77 22.81 8.02Q23.07 8.27 23.23 8.64Q23.38 9.00 23.43 9.37Q23.49 9.73 23.49 10.17L23.49 10.17L23.49 12.47Q23.49 13.06 23.75 13.43Q24.02 13.80 24.52 13.80L24.52 13.80L24.58 13.80Q24.79 13.80 24.79 14.01L24.79 14.01L24.79 14.43Q24.79 14.64 24.58 14.64L24.58 14.64L20.78 14.64Q20.57 14.64 20.57 14.43L20.57 14.43L20.57 14.01Q20.57 13.80 20.79 13.80L20.79 13.80Q21.17 13.81 21.36 13.44L21.36 13.44Q21.53 13.10 21.53 12.55L21.53 12.55Q21.53 12.51 21.53 12.47L21.53 12.47L21.53 10.36Q21.53 10.32 21.53 10.25L21.53 10.25Q21.53 10.04 21.53 9.92Q21.53 9.81 21.51 9.62Q21.49 9.43 21.45 9.32Q21.42 9.21 21.34 9.08Q21.27 8.94 21.16 8.87Q21.05 8.80 20.89 8.75Q20.73 8.70 20.51 8.70L20.51 8.70Q20.01 8.70 19.50 9.06Q19.00 9.43 18.81 9.89L18.81 9.89L18.81 12.47Q18.81 13.06 19.08 13.43Q19.35 13.80 19.84 13.80L19.84 13.80L19.87 13.80Q20.08 13.80 20.08 14.01L20.08 14.01L20.08 14.43Q20.08 14.64 19.87 14.64L19.87 14.64L15.79 14.64Q15.59 14.64 15.59 14.43ZM24.80 11.08L24.80 11.08Q24.80 10.33 24.99 9.71Q25.18 9.10 25.50 8.69Q25.82 8.29 26.25 8.01Q26.69 7.73 27.16 7.61Q27.62 7.49 28.14 7.49L28.14 7.49Q28.67 7.49 29.15 7.67Q29.62 7.85 29.96 8.13Q30.29 8.42 30.53 8.78Q30.78 9.14 30.90 9.50Q31.01 9.86 31.01 10.19L31.01 10.19Q31.01 10.31 30.90 10.36L30.90 10.36L26.84 12.14Q27.10 12.79 27.64 13.22Q28.18 13.64 28.94 13.64L28.94 13.64Q29.41 13.64 29.89 13.38Q30.37 13.13 30.72 12.61L30.72 12.61Q30.76 12.55 30.84 12.55L30.84 12.55Q30.93 12.55 31.40 12.82L31.40 12.82Q31.45 12.86 31.45 12.93L31.45 12.93Q31.45 13.02 31.36 13.18L31.36 13.18Q30.48 14.81 28.56 14.81L28.56 14.81Q27.43 14.81 26.56 14.30Q25.70 13.79 25.25 12.94Q24.80 12.10 24.80 11.08ZM26.88 9.05Q26.54 9.50 26.54 10.20Q26.54 10.90 26.67 11.27L26.67 11.27L28.92 10.13Q28.92 9.47 28.60 9.03Q28.28 8.59 27.79 8.59L27.79 8.59Q27.23 8.59 26.88 9.05ZM35.44 12.33L35.44 12.33Q35.44 12.22 35.55 12.15L35.55 12.15L35.98 11.90Q36.03 11.87 36.11 11.87L36.11 11.87Q36.21 11.87 36.27 11.98L36.27 11.98Q37.51 13.87 39.44 13.87L39.44 13.87Q40.79 13.87 40.79 13.07L40.79 13.07Q40.79 12.95 40.75 12.85Q40.71 12.74 40.63 12.65Q40.54 12.56 40.46 12.49Q40.37 12.41 40.21 12.34Q40.05 12.26 39.95 12.22Q39.84 12.17 39.63 12.10Q39.42 12.04 39.32 12.00Q39.21 11.97 38.98 11.90Q38.75 11.84 38.66 11.81L38.66 11.81Q37.99 11.61 37.51 11.39Q37.02 11.16 36.74 10.93Q36.45 10.71 36.28 10.44Q36.11 10.17 36.05 9.93Q35.99 9.69 35.99 9.39L35.99 9.39Q35.99 8.54 36.65 8.00Q37.31 7.47 38.40 7.47L38.40 7.47Q38.97 7.47 39.48 7.62Q39.98 7.77 40.25 7.93L40.25 7.93Q40.29 7.95 40.31 7.95L40.31 7.95Q40.41 7.95 40.33 7.66L40.33 7.66Q40.32 7.59 40.32 7.56L40.32 7.56Q40.32 7.42 40.50 7.42L40.50 7.42L40.86 7.42Q41.04 7.42 41.10 7.58L41.10 7.58L41.80 9.36Q41.84 9.45 41.84 9.50L41.84 9.50Q41.84 9.59 41.73 9.65L41.73 9.65L41.38 9.83Q41.32 9.86 41.28 9.86L41.28 9.86Q41.19 9.86 41.10 9.75L41.10 9.75Q40.51 9.02 39.83 8.67Q39.16 8.32 38.59 8.32L38.59 8.32Q38.17 8.32 37.89 8.49Q37.61 8.66 37.61 9.03L37.61 9.03Q37.61 9.25 37.74 9.42Q37.86 9.60 38.11 9.72Q38.36 9.84 38.59 9.92Q38.82 10.00 39.17 10.09L39.17 10.09Q40.35 10.39 40.81 10.59L40.81 10.59Q42.18 11.16 42.32 12.26L42.32 12.26Q42.33 12.39 42.33 12.53L42.33 12.53Q42.33 13.53 41.53 14.17Q40.73 14.81 39.38 14.81L39.38 14.81Q38.50 14.81 37.76 14.44L37.76 14.44Q37.68 14.41 37.64 14.41L37.64 14.41Q37.51 14.41 37.57 14.62L37.57 14.62Q37.59 14.68 37.59 14.73L37.59 14.73Q37.59 14.85 37.43 14.84L37.43 14.84L36.93 14.84Q36.76 14.84 36.68 14.70L36.68 14.70L35.47 12.44Q35.44 12.37 35.44 12.33ZM42.55 8.27L42.55 8.27L42.55 7.85Q42.55 7.64 42.77 7.64L42.77 7.64L43.78 7.64L43.78 6.71Q43.78 6.53 43.91 6.45L43.91 6.45Q44.88 5.93 45.62 5.30L45.62 5.30Q45.66 5.26 45.68 5.26L45.68 5.26L45.71 5.26Q45.74 5.26 45.74 5.28L45.74 5.28L45.74 7.64L47.61 7.64Q47.82 7.64 47.82 7.85L47.82 7.85L47.82 8.46Q47.82 8.67 47.61 8.67L47.61 8.67L45.75 8.67L45.75 12.67Q45.75 13.62 46.33 13.62L46.33 13.62Q46.68 13.62 47.33 13.22L47.33 13.22L47.34 13.21Q47.40 13.17 47.46 13.17L47.46 13.17Q47.55 13.17 47.63 13.28L47.63 13.28L47.85 13.63Q47.89 13.69 47.89 13.75L47.89 13.75Q47.89 13.84 47.78 13.92L47.78 13.92L47.37 14.18Q46.33 14.82 45.40 14.82L45.40 14.82Q45.06 14.82 44.78 14.71Q44.50 14.61 44.27 14.37Q44.04 14.13 43.91 13.70Q43.78 13.27 43.78 12.67L43.78 12.67L43.78 10.08Q43.78 9.86 43.77 9.74Q43.77 9.63 43.75 9.43Q43.74 9.24 43.70 9.13Q43.66 9.02 43.59 8.88Q43.52 8.74 43.41 8.66Q43.31 8.59 43.14 8.54Q42.98 8.48 42.77 8.48Q42.55 8.48 42.55 8.27ZM48.12 8.26L48.12 8.26L48.12 7.85Q48.12 7.64 48.33 7.64L48.33 7.64L51.56 7.64Q51.77 7.64 51.77 7.85L51.77 7.85L51.77 8.26Q51.77 8.48 51.56 8.48L51.56 8.48L51.54 8.48Q51.09 8.48 51.09 8.84L51.09 8.84Q51.09 9.10 51.41 9.80L51.41 9.80L52.34 11.85L53.35 9.77Q53.70 9.06 53.70 8.78L53.70 8.78Q53.70 8.48 53.38 8.48L53.38 8.48L53.14 8.48Q52.92 8.48 52.92 8.26L52.92 8.26L52.92 7.85Q52.92 7.64 53.14 7.64L53.14 7.64L55.84 7.64Q56.05 7.64 56.05 7.85L56.05 7.85L56.05 8.26Q56.05 8.48 55.84 8.48L55.84 8.48L55.64 8.48Q55.41 8.48 55.23 8.66Q55.06 8.84 54.82 9.35L54.82 9.35L50.76 17.53Q50.67 17.71 50.48 17.62L50.48 17.62L49.77 17.26Q49.57 17.17 49.66 16.98L49.66 16.98L51.23 13.62L49.17 9.36Q48.91 8.82 48.76 8.65Q48.62 8.48 48.36 8.48L48.36 8.48L48.33 8.48Q48.12 8.48 48.12 8.26ZM56.05 14.43L56.05 14.43L56.05 14.01Q56.05 13.80 56.26 13.80L56.26 13.80Q56.76 13.79 57.03 13.43L57.03 13.43Q57.28 13.07 57.28 12.52L57.28 12.52Q57.28 12.50 57.28 12.47L57.28 12.47L57.28 7.23Q57.28 6.88 57.25 6.66Q57.23 6.43 57.16 6.18Q57.08 5.93 56.90 5.78Q56.72 5.64 56.45 5.61L56.45 5.61Q56.27 5.59 56.29 5.43L56.29 5.43L56.29 4.96Q56.29 4.87 56.33 4.84Q56.38 4.81 56.49 4.77L56.49 4.77Q58.04 4.25 59.12 3.47L59.12 3.47Q59.16 3.45 59.18 3.45L59.18 3.45L59.21 3.45Q59.23 3.45 59.25 3.47L59.25 3.47L59.25 12.47Q59.25 13.06 59.51 13.43Q59.78 13.80 60.27 13.80L60.27 13.80Q60.48 13.80 60.48 14.01L60.48 14.01L60.48 14.43Q60.48 14.64 60.27 14.64L60.27 14.64L56.26 14.64Q56.05 14.64 56.05 14.43ZM60.79 11.08L60.79 11.08Q60.79 10.33 60.98 9.71Q61.17 9.10 61.49 8.69Q61.81 8.29 62.24 8.01Q62.68 7.73 63.15 7.61Q63.62 7.49 64.13 7.49L64.13 7.49Q64.66 7.49 65.14 7.67Q65.61 7.85 65.95 8.13Q66.28 8.42 66.52 8.78Q66.77 9.14 66.89 9.50Q67.01 9.86 67.01 10.19L67.01 10.19Q67.01 10.31 66.89 10.36L66.89 10.36L62.83 12.14Q63.10 12.79 63.63 13.22Q64.17 13.64 64.93 13.64L64.93 13.64Q65.40 13.64 65.88 13.38Q66.36 13.13 66.71 12.61L66.71 12.61Q66.75 12.55 66.83 12.55L66.83 12.55Q66.92 12.55 67.39 12.82L67.39 12.82Q67.44 12.86 67.44 12.93L67.44 12.93Q67.44 13.02 67.35 13.18L67.35 13.18Q66.47 14.81 64.55 14.81L64.55 14.81Q63.42 14.81 62.56 14.30Q61.69 13.79 61.24 12.94Q60.79 12.10 60.79 11.08ZM62.87 9.05Q62.53 9.50 62.53 10.20Q62.53 10.90 62.66 11.27L62.66 11.27L64.91 10.13Q64.91 9.47 64.59 9.03Q64.27 8.59 63.79 8.59L63.79 8.59Q63.22 8.59 62.87 9.05Z"></path></g><!----><g data-v-423bf9ae="" id="62dca404-4e68-4768-a7dd-c8dba5f38045" transform="matrix(2.8125,0,0,2.8125,0,0)" stroke="none" fill="white"><circle cx="16" cy="16.021" r="8.066"></circle><path d="M32 0H0v32h32V0zM16 26.086c-5.551 0-10.066-4.516-10.066-10.065 0-5.55 4.516-10.066 10.066-10.066 5.55 0 10.065 4.516 10.065 10.066.001 5.55-4.515 10.065-10.065 10.065z"></path></g><!----><g data-v-423bf9ae="" id="1b7f16b6-1b52-4487-8b1c-d4debf134d33" fill="white" transform="matrix(0.46681504809111163,0,0,0.46681504809111163,109.83661546924239,57.34382416740225)"><path d="M0.38 14.40L0.35 14.14L5.83 6.27L1.48 6.27L0.95 8.22L0.68 8.15L0.74 5.89L6.73 5.89L6.76 6.15L1.26 14L5.82 14L6.54 12.06L6.84 12.11L6.57 14.40L0.38 14.40ZM15.35 9.75L15.35 9.75Q15.35 11.03 15.71 12.01Q16.07 13.00 16.79 13.57Q17.51 14.14 18.48 14.14L18.48 14.14Q19.06 14.14 19.55 13.92Q20.04 13.70 20.39 13.33Q20.73 12.96 20.98 12.49Q21.22 12.01 21.33 11.50Q21.45 10.99 21.45 10.48L21.45 10.48Q21.45 8.50 20.60 7.29Q19.75 6.07 18.30 6.07L18.30 6.07Q17.72 6.07 17.23 6.28Q16.73 6.49 16.39 6.85Q16.05 7.21 15.81 7.69Q15.57 8.16 15.46 8.69Q15.35 9.21 15.35 9.75ZM14.59 10.16L14.59 10.16Q14.59 8.16 15.69 6.92Q16.79 5.69 18.63 5.69L18.63 5.69Q19.76 5.69 20.58 6.27Q21.40 6.86 21.79 7.84Q22.19 8.83 22.19 10.11L22.19 10.11Q22.19 10.75 22.04 11.38Q21.89 12.00 21.56 12.58Q21.24 13.17 20.78 13.61Q20.32 14.05 19.64 14.32Q18.96 14.58 18.16 14.58L18.16 14.58Q17.10 14.58 16.28 13.98Q15.46 13.37 15.03 12.37Q14.59 11.37 14.59 10.16ZM31.16 6.36L29.89 6.14L29.95 5.89L32.02 5.89L36.74 13.17L36.74 6.33L35.49 6.16L35.53 5.89L38.43 5.89L38.38 6.16L37.24 6.32L37.24 14.44L36.87 14.52L31.66 6.65L31.66 13.95L32.92 14.08L32.85 14.40L29.98 14.40L30.02 14.11L31.16 13.90L31.16 6.36ZM47.34 6.36L46.12 6.18L46.16 5.89L52.36 5.89L52.14 8.07L51.83 8.03L51.70 6.24L48.05 6.24L48.05 9.89L50.34 9.89L50.59 8.94L50.96 8.89L50.74 11.55L50.39 11.61L50.28 10.26L48.05 10.26L48.05 14.03L51.89 14.03L52.40 12.19L52.68 12.26L52.47 14.40L46.14 14.40L46.18 14.11L47.34 13.90L47.34 6.36ZM70.31 13.60L70.31 13.60L70.51 11.66L70.84 11.71L71.03 13.21Q71.26 13.64 71.79 13.89Q72.32 14.14 72.92 14.14L72.92 14.14Q73.60 14.14 74.08 13.74Q74.56 13.33 74.56 12.61L74.56 12.61Q74.56 12.20 74.34 11.83Q74.13 11.46 73.78 11.18Q73.44 10.90 73.02 10.63Q72.60 10.36 72.18 10.07Q71.76 9.79 71.42 9.48Q71.07 9.17 70.86 8.75Q70.64 8.33 70.64 7.84L70.64 7.84Q70.64 6.88 71.34 6.29Q72.03 5.71 72.91 5.71L72.91 5.71Q73.50 5.71 74.04 5.90Q74.58 6.09 74.91 6.46L74.91 6.46L74.68 8.58L74.37 8.53L74.18 6.87Q74.00 6.54 73.58 6.32Q73.17 6.10 72.73 6.10L72.73 6.10Q72.14 6.10 71.73 6.48Q71.31 6.87 71.31 7.52L71.31 7.52Q71.31 7.96 71.53 8.35Q71.76 8.74 72.11 9.03Q72.46 9.32 72.88 9.61Q73.31 9.89 73.74 10.17Q74.16 10.45 74.52 10.75Q74.87 11.05 75.09 11.45Q75.31 11.85 75.31 12.29L75.31 12.29Q75.31 13.28 74.56 13.93Q73.81 14.57 72.56 14.57L72.56 14.57Q71.85 14.57 71.25 14.30Q70.65 14.03 70.31 13.60ZM83.09 8.09L83.02 5.89L90.08 5.89L89.84 8.16L89.50 8.12L89.39 6.24L86.85 6.24L86.85 13.90L88.06 14.08L87.99 14.40L84.89 14.40L84.92 14.11L86.12 13.90L86.12 6.24L83.69 6.24L83.45 8.15L83.09 8.09ZM98.73 6.35L97.78 6.15L97.81 5.90L100.66 5.90L100.63 6.15L99.50 6.32L101.64 10.49L103.76 6.34L102.49 6.14L102.50 5.89L105.17 5.89L105.15 6.14L104.27 6.32L101.88 11.05L101.88 13.94L103.12 14.08L103.07 14.40L99.92 14.40L99.96 14.11L101.16 13.90L101.16 11.05L98.73 6.35ZM119.04 14.40L112.89 14.40L112.92 14.11L114.08 13.90L114.08 6.34L112.90 6.17L112.93 5.90L116.04 5.90L116.01 6.17L114.81 6.32L114.81 14.03L118.43 14.03L118.96 12.09L119.26 12.14L119.04 14.40ZM128.20 6.36L126.98 6.18L127.03 5.89L133.22 5.89L133.01 8.07L132.69 8.03L132.56 6.24L128.91 6.24L128.91 9.89L131.20 9.89L131.46 8.94L131.82 8.89L131.60 11.55L131.25 11.61L131.14 10.26L128.91 10.26L128.91 14.03L132.75 14.03L133.26 12.19L133.54 12.26L133.33 14.40L127.00 14.40L127.04 14.11L128.20 13.90L128.20 6.36ZM141.37 13.69L141.37 13.69Q141.37 13.03 141.80 13.03Q142.24 13.03 142.24 13.69L142.24 13.69Q142.24 14.40 141.80 14.40Q141.37 14.40 141.37 13.69ZM141.35 9.38L141.35 9.38Q141.35 8.73 141.78 8.73L141.78 8.73Q142.21 8.73 142.21 9.38L142.21 9.38Q142.21 9.73 142.11 9.91Q142.02 10.08 141.79 10.08L141.79 10.08Q141.35 10.08 141.35 9.38ZM160.86 6.35L159.91 6.15L159.94 5.90L162.79 5.90L162.76 6.15L161.63 6.32L163.77 10.49L165.89 6.34L164.62 6.14L164.64 5.89L167.30 5.89L167.28 6.14L166.40 6.32L164.01 11.05L164.01 13.94L165.25 14.08L165.20 14.40L162.05 14.40L162.09 14.11L163.29 13.90L163.29 11.05L160.86 6.35ZM175.79 9.75L175.79 9.75Q175.79 11.03 176.15 12.01Q176.51 13.00 177.23 13.57Q177.95 14.14 178.92 14.14L178.92 14.14Q179.50 14.14 179.99 13.92Q180.48 13.70 180.83 13.33Q181.17 12.96 181.42 12.49Q181.66 12.01 181.77 11.50Q181.89 10.99 181.89 10.48L181.89 10.48Q181.89 8.50 181.04 7.29Q180.19 6.07 178.74 6.07L178.74 6.07Q178.16 6.07 177.67 6.28Q177.17 6.49 176.83 6.85Q176.49 7.21 176.25 7.69Q176.01 8.16 175.90 8.69Q175.79 9.21 175.79 9.75ZM175.03 10.16L175.03 10.16Q175.03 8.16 176.13 6.92Q177.23 5.69 179.07 5.69L179.07 5.69Q180.20 5.69 181.02 6.27Q181.84 6.86 182.23 7.84Q182.63 8.83 182.63 10.11L182.63 10.11Q182.63 10.75 182.48 11.38Q182.33 12.00 182.00 12.58Q181.68 13.17 181.22 13.61Q180.76 14.05 180.08 14.32Q179.40 14.58 178.60 14.58L178.60 14.58Q177.54 14.58 176.72 13.98Q175.90 13.37 175.46 12.37Q175.03 11.37 175.03 10.16ZM191.56 6.33L190.33 6.16L190.35 5.89L193.46 5.89L193.43 6.16L192.27 6.32L192.27 11.01Q192.27 11.87 192.46 12.49Q192.64 13.10 192.99 13.45Q193.33 13.79 193.78 13.95Q194.23 14.11 194.82 14.11L194.82 14.11Q195.99 14.11 196.64 13.40Q197.28 12.68 197.28 11.33L197.28 11.33L197.28 6.33L196.01 6.16L196.04 5.89L198.95 5.89L198.89 6.16L197.76 6.32L197.74 11.05Q197.73 12.78 196.99 13.68Q196.25 14.58 194.59 14.58L194.59 14.58Q194.09 14.58 193.67 14.49Q193.25 14.40 192.85 14.16Q192.45 13.93 192.18 13.56Q191.90 13.19 191.73 12.60Q191.56 12.01 191.56 11.24L191.56 11.24L191.56 6.33ZM208.45 6.18L208.45 10.11L210 10.11Q210.68 9.86 211.14 9.28Q211.60 8.70 211.60 8.02L211.60 8.02Q211.60 7.11 210.98 6.63Q210.36 6.15 209.28 6.15L209.28 6.15L208.45 6.18ZM209.82 14.40L206.63 14.40L206.68 14.11L207.74 13.90L207.74 6.51L206.65 6.37L206.71 6.13Q208.54 5.83 209.62 5.83L209.62 5.83Q210.38 5.83 210.99 6.05Q211.60 6.27 211.98 6.73Q212.35 7.19 212.35 7.83L212.35 7.83Q212.35 8.57 211.92 9.14Q211.50 9.72 210.46 10.23L210.46 10.23L210.46 10.23L211.78 12.19Q212.50 13.23 212.84 13.58Q213.19 13.92 213.57 14.05L213.57 14.05L213.90 14.16L213.86 14.42Q213.56 14.52 213.22 14.52L213.22 14.52Q212.93 14.52 212.68 14.40Q212.43 14.28 212.18 14.01Q211.94 13.75 211.76 13.48Q211.57 13.22 211.30 12.77L211.30 12.77L209.91 10.49L208.45 10.49L208.45 13.95L209.89 14.08L209.82 14.40ZM232.71 6.36L231.50 6.18L231.55 5.89L237.74 5.89L237.51 8.09L237.18 8.04L237.04 6.24L233.41 6.24L233.41 10.07L235.69 10.07L235.96 9.11L236.34 9.06L236.13 11.72L235.75 11.77L235.63 10.43L233.41 10.43L233.41 13.92L235.09 14.03L235.01 14.40L231.53 14.40L231.55 14.11L232.71 13.90L232.71 6.36ZM249.51 6.98L248.14 10.75L250.83 10.75L249.51 6.98ZM248.19 14.40L245.46 14.40L245.50 14.11L246.47 13.90L249.46 5.82L249.83 5.73L252.66 13.95L253.57 14.08L253.51 14.39L250.71 14.39L250.78 14.10L251.91 13.90L250.96 11.13L248.01 11.13L247.00 13.95L248.25 14.08L248.19 14.40ZM261.26 13.60L261.26 13.60L261.47 11.66L261.80 11.71L261.99 13.21Q262.21 13.64 262.74 13.89Q263.27 14.14 263.87 14.14L263.87 14.14Q264.56 14.14 265.04 13.74Q265.51 13.33 265.51 12.61L265.51 12.61Q265.51 12.20 265.30 11.83Q265.08 11.46 264.74 11.18Q264.39 10.90 263.97 10.63Q263.55 10.36 263.14 10.07Q262.72 9.79 262.37 9.48Q262.03 9.17 261.81 8.75Q261.60 8.33 261.60 7.84L261.60 7.84Q261.60 6.88 262.29 6.29Q262.99 5.71 263.87 5.71L263.87 5.71Q264.46 5.71 265.00 5.90Q265.54 6.09 265.86 6.46L265.86 6.46L265.64 8.58L265.32 8.53L265.14 6.87Q264.95 6.54 264.54 6.32Q264.12 6.10 263.69 6.10L263.69 6.10Q263.09 6.10 262.68 6.48Q262.27 6.87 262.27 7.52L262.27 7.52Q262.27 7.96 262.49 8.35Q262.71 8.74 263.06 9.03Q263.42 9.32 263.84 9.61Q264.26 9.89 264.69 10.17Q265.12 10.45 265.47 10.75Q265.82 11.05 266.04 11.45Q266.27 11.85 266.27 12.29L266.27 12.29Q266.27 13.28 265.51 13.93Q264.76 14.57 263.52 14.57L263.52 14.57Q262.81 14.57 262.21 14.30Q261.60 14.03 261.26 13.60ZM275.21 6.33L273.98 6.16L274.00 5.89L277.12 5.89L277.08 6.16L275.93 6.32L275.93 9.95L280.83 9.95L280.83 6.33L279.58 6.16L279.62 5.89L282.73 5.89L282.68 6.16L281.54 6.32L281.54 13.95L282.79 14.08L282.74 14.40L279.64 14.40L279.70 14.11L280.83 13.90L280.83 10.36L275.93 10.36L275.93 13.95L277.20 14.08L277.12 14.40L274.03 14.40L274.07 14.11L275.21 13.90L275.21 6.33ZM291.66 6.33L290.48 6.16L290.52 5.89L293.64 5.89L293.60 6.16L292.40 6.32L292.40 13.95L293.72 14.08L293.66 14.40L290.55 14.40L290.58 14.11L291.66 13.90L291.66 6.33ZM302.21 9.75L302.21 9.75Q302.21 11.03 302.57 12.01Q302.93 13.00 303.65 13.57Q304.37 14.14 305.35 14.14L305.35 14.14Q305.92 14.14 306.41 13.92Q306.91 13.70 307.25 13.33Q307.60 12.96 307.84 12.49Q308.08 12.01 308.20 11.50Q308.31 10.99 308.31 10.48L308.31 10.48Q308.31 8.50 307.46 7.29Q306.61 6.07 305.16 6.07L305.16 6.07Q304.58 6.07 304.09 6.28Q303.60 6.49 303.26 6.85Q302.91 7.21 302.67 7.69Q302.44 8.16 302.32 8.69Q302.21 9.21 302.21 9.75ZM301.46 10.16L301.46 10.16Q301.46 8.16 302.56 6.92Q303.65 5.69 305.49 5.69L305.49 5.69Q306.63 5.69 307.44 6.27Q308.26 6.86 308.66 7.84Q309.05 8.83 309.05 10.11L309.05 10.11Q309.05 10.75 308.90 11.38Q308.75 12.00 308.43 12.58Q308.10 13.17 307.64 13.61Q307.18 14.05 306.50 14.32Q305.83 14.58 305.02 14.58L305.02 14.58Q303.97 14.58 303.14 13.98Q302.32 13.37 301.89 12.37Q301.46 11.37 301.46 10.16ZM318.02 6.36L316.76 6.14L316.81 5.89L318.88 5.89L323.61 13.17L323.61 6.33L322.36 6.16L322.40 5.89L325.29 5.89L325.24 6.16L324.11 6.32L324.11 14.44L323.74 14.52L318.53 6.65L318.53 13.95L319.79 14.08L319.72 14.40L316.84 14.40L316.88 14.11L318.02 13.90L318.02 6.36ZM346.30 14.40L342.89 14.40L342.92 14.11L344.00 13.90L344.00 6.51L342.90 6.36L342.96 6.12Q343.13 6.09 343.58 6.02Q344.03 5.94 344.25 5.91Q344.48 5.88 344.89 5.84Q345.30 5.81 345.72 5.81L345.72 5.81Q346.41 5.81 347.00 5.96Q347.59 6.10 348.05 6.40Q348.51 6.69 348.77 7.18Q349.03 7.66 349.03 8.29L349.03 8.29Q349.03 8.90 348.75 9.43Q348.47 9.97 348.01 10.33Q347.55 10.69 346.94 10.90Q346.34 11.10 345.71 11.10L345.71 11.10Q345.43 11.10 345.37 11.09L345.37 11.09L345.30 10.80L345.67 10.78Q346.33 10.75 346.82 10.55Q347.32 10.36 347.61 10.03Q347.90 9.70 348.04 9.30Q348.18 8.90 348.18 8.43L348.18 8.43Q348.18 7.98 348.01 7.57Q347.85 7.16 347.53 6.83Q347.20 6.50 346.68 6.31Q346.16 6.11 345.51 6.11L345.51 6.11L344.76 6.15L344.76 13.95L346.36 14.08L346.30 14.40ZM362.89 14.40L356.73 14.40L356.77 14.11L357.92 13.90L357.92 6.34L356.75 6.17L356.77 5.90L359.88 5.90L359.86 6.17L358.65 6.32L358.65 14.03L362.28 14.03L362.80 12.09L363.10 12.14L362.89 14.40ZM374.88 6.98L373.52 10.75L376.20 10.75L374.88 6.98ZM373.56 14.40L370.84 14.40L370.87 14.11L371.84 13.90L374.83 5.82L375.20 5.73L378.03 13.95L378.94 14.08L378.88 14.39L376.09 14.39L376.15 14.10L377.28 13.90L376.33 11.13L373.38 11.13L372.37 13.95L373.63 14.08L373.56 14.40ZM387.56 6.35L386.61 6.15L386.64 5.90L389.49 5.90L389.46 6.15L388.33 6.32L390.47 10.49L392.59 6.34L391.32 6.14L391.34 5.89L394.00 5.89L393.98 6.14L393.10 6.32L390.71 11.05L390.71 13.94L391.95 14.08L391.90 14.40L388.75 14.40L388.79 14.11L389.99 13.90L389.99 11.05L387.56 6.35ZM401.73 10.27L401.73 10.27Q401.73 9.64 401.91 9.00Q402.08 8.36 402.42 7.78Q402.77 7.21 403.25 6.75Q403.73 6.30 404.40 6.04Q405.06 5.77 405.82 5.77L405.82 5.77Q406.56 5.77 407.26 5.94Q407.97 6.11 408.44 6.47L408.44 6.47L408.24 8.64L407.93 8.61L407.72 6.99Q407.45 6.65 406.90 6.41Q406.36 6.17 405.60 6.17L405.60 6.17Q404.19 6.17 403.35 7.27Q402.51 8.37 402.51 10.07L402.51 10.07Q402.51 10.69 402.62 11.25Q402.73 11.81 402.99 12.34Q403.24 12.87 403.62 13.25Q404.00 13.63 404.58 13.86Q405.17 14.09 405.90 14.09L405.90 14.09Q406.96 14.09 407.68 13.59L407.68 13.59L407.70 11.03L406.05 10.86L406.09 10.60L409.37 10.60L409.32 10.86L408.41 11.01L408.41 13.86Q407.76 14.25 407.02 14.39Q406.28 14.53 405.19 14.53L405.19 14.53Q404.49 14.53 403.86 14.23Q403.22 13.93 402.76 13.39Q402.29 12.85 402.01 12.04Q401.73 11.23 401.73 10.27ZM418.86 6.18L418.86 10.11L420.41 10.11Q421.09 9.86 421.55 9.28Q422.01 8.70 422.01 8.02L422.01 8.02Q422.01 7.11 421.39 6.63Q420.77 6.15 419.69 6.15L419.69 6.15L418.86 6.18ZM420.23 14.40L417.04 14.40L417.09 14.11L418.15 13.90L418.15 6.51L417.06 6.37L417.12 6.13Q418.95 5.83 420.03 5.83L420.03 5.83Q420.79 5.83 421.40 6.05Q422.01 6.27 422.39 6.73Q422.76 7.19 422.76 7.83L422.76 7.83Q422.76 8.57 422.33 9.14Q421.91 9.72 420.88 10.23L420.88 10.23L420.88 10.23L422.19 12.19Q422.91 13.23 423.25 13.58Q423.60 13.92 423.98 14.05L423.98 14.05L424.31 14.16L424.27 14.42Q423.97 14.52 423.63 14.52L423.63 14.52Q423.34 14.52 423.09 14.40Q422.84 14.28 422.59 14.01Q422.35 13.75 422.17 13.48Q421.98 13.22 421.71 12.77L421.71 12.77L420.32 10.49L418.86 10.49L418.86 13.95L420.30 14.08L420.23 14.40ZM432.78 9.75L432.78 9.75Q432.78 11.03 433.14 12.01Q433.50 13.00 434.22 13.57Q434.94 14.14 435.91 14.14L435.91 14.14Q436.49 14.14 436.98 13.92Q437.47 13.70 437.82 13.33Q438.16 12.96 438.41 12.49Q438.65 12.01 438.76 11.50Q438.88 10.99 438.88 10.48L438.88 10.48Q438.88 8.50 438.03 7.29Q437.18 6.07 435.73 6.07L435.73 6.07Q435.15 6.07 434.66 6.28Q434.16 6.49 433.82 6.85Q433.48 7.21 433.24 7.69Q433.00 8.16 432.89 8.69Q432.78 9.21 432.78 9.75ZM432.02 10.16L432.02 10.16Q432.02 8.16 433.12 6.92Q434.22 5.69 436.06 5.69L436.06 5.69Q437.19 5.69 438.01 6.27Q438.83 6.86 439.22 7.84Q439.62 8.83 439.62 10.11L439.62 10.11Q439.62 10.75 439.47 11.38Q439.32 12.00 438.99 12.58Q438.67 13.17 438.21 13.61Q437.75 14.05 437.07 14.32Q436.39 14.58 435.59 14.58L435.59 14.58Q434.53 14.58 433.71 13.98Q432.89 13.37 432.46 12.37Q432.02 11.37 432.02 10.16ZM448.55 6.33L447.32 6.16L447.34 5.89L450.45 5.89L450.42 6.16L449.26 6.32L449.26 11.01Q449.26 11.87 449.45 12.49Q449.63 13.10 449.98 13.45Q450.32 13.79 450.77 13.95Q451.22 14.11 451.81 14.11L451.81 14.11Q452.98 14.11 453.63 13.40Q454.27 12.68 454.27 11.33L454.27 11.33L454.27 6.33L453.00 6.16L453.03 5.89L455.94 5.89L455.88 6.16L454.75 6.32L454.73 11.05Q454.72 12.78 453.98 13.68Q453.24 14.58 451.58 14.58L451.58 14.58Q451.08 14.58 450.66 14.49Q450.24 14.40 449.84 14.16Q449.44 13.93 449.17 13.56Q448.89 13.19 448.72 12.60Q448.55 12.01 448.55 11.24L448.55 11.24L448.55 6.33ZM464.86 6.36L463.60 6.14L463.65 5.89L465.73 5.89L470.45 13.17L470.45 6.33L469.20 6.16L469.24 5.89L472.14 5.89L472.08 6.16L470.95 6.32L470.95 14.44L470.58 14.52L465.37 6.65L465.37 13.95L466.63 14.08L466.56 14.40L463.68 14.40L463.72 14.11L464.86 13.90L464.86 6.36ZM481.71 6.19L481.71 14.03L482.95 14.03Q484.75 14.03 485.85 12.95Q486.94 11.87 486.94 10.12L486.94 10.12Q486.94 8.20 485.89 7.18Q484.84 6.16 482.90 6.16L482.90 6.16Q481.91 6.16 481.71 6.19L481.71 6.19ZM482.76 14.40L479.81 14.40L479.87 14.11L481.02 13.90L481.02 6.51L479.85 6.36L479.92 6.12Q482.00 5.79 483.16 5.79L483.16 5.79Q484.12 5.79 484.90 6.03Q485.67 6.26 486.19 6.66Q486.70 7.05 487.04 7.59Q487.38 8.13 487.53 8.71Q487.68 9.29 487.68 9.92L487.68 9.92Q487.68 10.64 487.51 11.28Q487.34 11.93 486.96 12.50Q486.58 13.08 486.01 13.49Q485.45 13.91 484.62 14.15Q483.79 14.40 482.76 14.40L482.76 14.40Z"></path></g></svg>