<svg data-v-423bf9ae="" xmlns="http://www.w3.org/2000/svg" viewBox="0 0 284.36621389746614 60" class="font"><!----><!----><!----><g data-v-423bf9ae="" id="1546feb0-8f57-45f1-ab14-6ff8267fd393" fill="white" transform="matrix(4.225352169431124,0,0,4.225352169431124,-0.5915501752743353,-14.57746447076213)"><path d="M0.14 14.43L0.14 14.43L0.14 13.83Q0.14 13.73 0.19 13.68L0.19 13.68L4.59 8.54L3.25 8.61Q2.54 8.64 2.04 8.93Q1.54 9.21 1.16 9.82L1.16 9.82L1.09 9.91Q1.03 10.03 0.92 10.03L0.92 10.03Q0.87 10.03 0.81 9.99L0.81 9.99L0.33 9.71Q0.23 9.66 0.22 9.60L0.22 9.60L0.21 9.55Q0.21 9.47 0.25 9.43L0.25 9.43L1.40 7.59Q1.48 7.46 1.59 7.46L1.59 7.46Q1.64 7.46 1.69 7.51L1.69 7.51L1.75 7.57Q1.81 7.64 2.01 7.64L2.01 7.64L7.18 7.64Q7.36 7.64 7.36 7.77L7.36 7.77Q7.36 7.83 7.30 7.90L7.30 7.90L2.38 13.71L3.47 13.68Q4.52 13.64 4.98 13.54L4.98 13.54Q6.13 13.30 6.60 12.48L6.60 12.48L6.64 12.40Q6.71 12.29 6.82 12.29L6.82 12.29Q6.88 12.29 6.93 12.33L6.93 12.33L7.37 12.58Q7.48 12.64 7.48 12.74L7.48 12.74Q7.48 12.81 7.44 12.87L7.44 12.87L6.36 14.71Q6.29 14.83 6.19 14.83L6.19 14.83Q6.14 14.83 6.07 14.78L6.07 14.78L6.00 14.71Q5.91 14.64 5.74 14.64L5.74 14.64L0.35 14.64Q0.14 14.64 0.14 14.43ZM7.90 11.07L7.90 11.07Q7.90 10.01 8.46 9.11Q9.02 8.20 9.99 7.77L9.99 7.77Q10.66 7.47 11.41 7.47L11.41 7.47Q12.47 7.47 13.39 8.07Q14.31 8.66 14.77 9.69L14.77 9.69Q15.09 10.41 15.09 11.22L15.09 11.22Q15.09 12.28 14.53 13.17Q13.97 14.07 13.00 14.51L13.00 14.51Q12.30 14.81 11.57 14.81L11.57 14.81Q10.51 14.81 9.59 14.22Q8.67 13.62 8.22 12.60L8.22 12.60Q7.90 11.87 7.90 11.07ZM9.57 10.19L9.57 10.19Q9.57 10.96 9.96 11.83L9.96 11.83Q10.32 12.63 10.86 13.16Q11.40 13.69 12.01 13.69L12.01 13.69Q12.28 13.69 12.57 13.57L12.57 13.57Q13.42 13.20 13.42 12.09L13.42 12.09Q13.42 11.33 13.03 10.46L13.03 10.46Q12.67 9.65 12.12 9.12Q11.58 8.59 10.97 8.59L10.97 8.59Q10.70 8.59 10.41 8.72L10.41 8.72Q9.57 9.08 9.57 10.19ZM15.59 14.43L15.59 14.43L15.59 14.01Q15.59 13.80 15.79 13.80L15.79 13.80L15.83 13.80Q16.32 13.80 16.58 13.43Q16.84 13.06 16.84 12.47L16.84 12.47L16.84 10.71Q16.84 10.37 16.82 10.14Q16.80 9.92 16.72 9.67Q16.65 9.41 16.47 9.27Q16.29 9.13 16.02 9.10L16.02 9.10Q15.84 9.08 15.85 8.92L15.85 8.92L15.85 8.44Q15.85 8.29 16.05 8.26L16.05 8.26Q16.95 8.11 17.71 7.81Q18.46 7.50 18.83 7.24L18.83 7.24Q18.87 7.21 18.89 7.21L18.89 7.21L18.92 7.21Q18.94 7.21 18.94 7.23L18.94 7.23L18.69 9.06Q19.69 7.46 21.11 7.46L21.11 7.46Q21.69 7.46 22.12 7.62Q22.56 7.77 22.81 8.02Q23.07 8.27 23.23 8.64Q23.38 9.00 23.43 9.37Q23.49 9.73 23.49 10.17L23.49 10.17L23.49 12.47Q23.49 13.06 23.75 13.43Q24.02 13.80 24.52 13.80L24.52 13.80L24.58 13.80Q24.79 13.80 24.79 14.01L24.79 14.01L24.79 14.43Q24.79 14.64 24.58 14.64L24.58 14.64L20.78 14.64Q20.57 14.64 20.57 14.43L20.57 14.43L20.57 14.01Q20.57 13.80 20.79 13.80L20.79 13.80Q21.17 13.81 21.36 13.44L21.36 13.44Q21.53 13.10 21.53 12.55L21.53 12.55Q21.53 12.51 21.53 12.47L21.53 12.47L21.53 10.36Q21.53 10.32 21.53 10.25L21.53 10.25Q21.53 10.04 21.53 9.92Q21.53 9.81 21.51 9.62Q21.49 9.43 21.45 9.32Q21.42 9.21 21.34 9.08Q21.27 8.94 21.16 8.87Q21.05 8.80 20.89 8.75Q20.73 8.70 20.51 8.70L20.51 8.70Q20.01 8.70 19.50 9.06Q19.00 9.43 18.81 9.89L18.81 9.89L18.81 12.47Q18.81 13.06 19.08 13.43Q19.35 13.80 19.84 13.80L19.84 13.80L19.87 13.80Q20.08 13.80 20.08 14.01L20.08 14.01L20.08 14.43Q20.08 14.64 19.87 14.64L19.87 14.64L15.79 14.64Q15.59 14.64 15.59 14.43ZM24.80 11.08L24.80 11.08Q24.80 10.33 24.99 9.71Q25.18 9.10 25.50 8.69Q25.82 8.29 26.25 8.01Q26.69 7.73 27.16 7.61Q27.62 7.49 28.14 7.49L28.14 7.49Q28.67 7.49 29.15 7.67Q29.62 7.85 29.96 8.13Q30.29 8.42 30.53 8.78Q30.78 9.14 30.90 9.50Q31.01 9.86 31.01 10.19L31.01 10.19Q31.01 10.31 30.90 10.36L30.90 10.36L26.84 12.14Q27.10 12.79 27.64 13.22Q28.18 13.64 28.94 13.64L28.94 13.64Q29.41 13.64 29.89 13.38Q30.37 13.13 30.72 12.61L30.72 12.61Q30.76 12.55 30.84 12.55L30.84 12.55Q30.93 12.55 31.40 12.82L31.40 12.82Q31.45 12.86 31.45 12.93L31.45 12.93Q31.45 13.02 31.36 13.18L31.36 13.18Q30.48 14.81 28.56 14.81L28.56 14.81Q27.43 14.81 26.56 14.30Q25.70 13.79 25.25 12.94Q24.80 12.10 24.80 11.08ZM26.88 9.05Q26.54 9.50 26.54 10.20Q26.54 10.90 26.67 11.27L26.67 11.27L28.92 10.13Q28.92 9.47 28.60 9.03Q28.28 8.59 27.79 8.59L27.79 8.59Q27.23 8.59 26.88 9.05ZM35.44 12.33L35.44 12.33Q35.44 12.22 35.55 12.15L35.55 12.15L35.98 11.90Q36.03 11.87 36.11 11.87L36.11 11.87Q36.21 11.87 36.27 11.98L36.27 11.98Q37.51 13.87 39.44 13.87L39.44 13.87Q40.79 13.87 40.79 13.07L40.79 13.07Q40.79 12.95 40.75 12.85Q40.71 12.74 40.63 12.65Q40.54 12.56 40.46 12.49Q40.37 12.41 40.21 12.34Q40.05 12.26 39.95 12.22Q39.84 12.17 39.63 12.10Q39.42 12.04 39.32 12.00Q39.21 11.97 38.98 11.90Q38.75 11.84 38.66 11.81L38.66 11.81Q37.99 11.61 37.51 11.39Q37.02 11.16 36.74 10.93Q36.45 10.71 36.28 10.44Q36.11 10.17 36.05 9.93Q35.99 9.69 35.99 9.39L35.99 9.39Q35.99 8.54 36.65 8.00Q37.31 7.47 38.40 7.47L38.40 7.47Q38.97 7.47 39.48 7.62Q39.98 7.77 40.25 7.93L40.25 7.93Q40.29 7.95 40.31 7.95L40.31 7.95Q40.41 7.95 40.33 7.66L40.33 7.66Q40.32 7.59 40.32 7.56L40.32 7.56Q40.32 7.42 40.50 7.42L40.50 7.42L40.86 7.42Q41.04 7.42 41.10 7.58L41.10 7.58L41.80 9.36Q41.84 9.45 41.84 9.50L41.84 9.50Q41.84 9.59 41.73 9.65L41.73 9.65L41.38 9.83Q41.32 9.86 41.28 9.86L41.28 9.86Q41.19 9.86 41.10 9.75L41.10 9.75Q40.51 9.02 39.83 8.67Q39.16 8.32 38.59 8.32L38.59 8.32Q38.17 8.32 37.89 8.49Q37.61 8.66 37.61 9.03L37.61 9.03Q37.61 9.25 37.74 9.42Q37.86 9.60 38.11 9.72Q38.36 9.84 38.59 9.92Q38.82 10.00 39.17 10.09L39.17 10.09Q40.35 10.39 40.81 10.59L40.81 10.59Q42.18 11.16 42.32 12.26L42.32 12.26Q42.33 12.39 42.33 12.53L42.33 12.53Q42.33 13.53 41.53 14.17Q40.73 14.81 39.38 14.81L39.38 14.81Q38.50 14.81 37.76 14.44L37.76 14.44Q37.68 14.41 37.64 14.41L37.64 14.41Q37.51 14.41 37.57 14.62L37.57 14.62Q37.59 14.68 37.59 14.73L37.59 14.73Q37.59 14.85 37.43 14.84L37.43 14.84L36.93 14.84Q36.76 14.84 36.68 14.70L36.68 14.70L35.47 12.44Q35.44 12.37 35.44 12.33ZM42.55 8.27L42.55 8.27L42.55 7.85Q42.55 7.64 42.77 7.64L42.77 7.64L43.78 7.64L43.78 6.71Q43.78 6.53 43.91 6.45L43.91 6.45Q44.88 5.93 45.62 5.30L45.62 5.30Q45.66 5.26 45.68 5.26L45.68 5.26L45.71 5.26Q45.74 5.26 45.74 5.28L45.74 5.28L45.74 7.64L47.61 7.64Q47.82 7.64 47.82 7.85L47.82 7.85L47.82 8.46Q47.82 8.67 47.61 8.67L47.61 8.67L45.75 8.67L45.75 12.67Q45.75 13.62 46.33 13.62L46.33 13.62Q46.68 13.62 47.33 13.22L47.33 13.22L47.34 13.21Q47.40 13.17 47.46 13.17L47.46 13.17Q47.55 13.17 47.63 13.28L47.63 13.28L47.85 13.63Q47.89 13.69 47.89 13.75L47.89 13.75Q47.89 13.84 47.78 13.92L47.78 13.92L47.37 14.18Q46.33 14.82 45.40 14.82L45.40 14.82Q45.06 14.82 44.78 14.71Q44.50 14.61 44.27 14.37Q44.04 14.13 43.91 13.70Q43.78 13.27 43.78 12.67L43.78 12.67L43.78 10.08Q43.78 9.86 43.77 9.74Q43.77 9.63 43.75 9.43Q43.74 9.24 43.70 9.13Q43.66 9.02 43.59 8.88Q43.52 8.74 43.41 8.66Q43.31 8.59 43.14 8.54Q42.98 8.48 42.77 8.48Q42.55 8.48 42.55 8.27ZM48.12 8.26L48.12 8.26L48.12 7.85Q48.12 7.64 48.33 7.64L48.33 7.64L51.56 7.64Q51.77 7.64 51.77 7.85L51.77 7.85L51.77 8.26Q51.77 8.48 51.56 8.48L51.56 8.48L51.54 8.48Q51.09 8.48 51.09 8.84L51.09 8.84Q51.09 9.10 51.41 9.80L51.41 9.80L52.34 11.85L53.35 9.77Q53.70 9.06 53.70 8.78L53.70 8.78Q53.70 8.48 53.38 8.48L53.38 8.48L53.14 8.48Q52.92 8.48 52.92 8.26L52.92 8.26L52.92 7.85Q52.92 7.64 53.14 7.64L53.14 7.64L55.84 7.64Q56.05 7.64 56.05 7.85L56.05 7.85L56.05 8.26Q56.05 8.48 55.84 8.48L55.84 8.48L55.64 8.48Q55.41 8.48 55.23 8.66Q55.06 8.84 54.82 9.35L54.82 9.35L50.76 17.53Q50.67 17.71 50.48 17.62L50.48 17.62L49.77 17.26Q49.57 17.17 49.66 16.98L49.66 16.98L51.23 13.62L49.17 9.36Q48.91 8.82 48.76 8.65Q48.62 8.48 48.36 8.48L48.36 8.48L48.33 8.48Q48.12 8.48 48.12 8.26ZM56.05 14.43L56.05 14.43L56.05 14.01Q56.05 13.80 56.26 13.80L56.26 13.80Q56.76 13.79 57.03 13.43L57.03 13.43Q57.28 13.07 57.28 12.52L57.28 12.52Q57.28 12.50 57.28 12.47L57.28 12.47L57.28 7.23Q57.28 6.88 57.25 6.66Q57.23 6.43 57.16 6.18Q57.08 5.93 56.90 5.78Q56.72 5.64 56.45 5.61L56.45 5.61Q56.27 5.59 56.29 5.43L56.29 5.43L56.29 4.96Q56.29 4.87 56.33 4.84Q56.38 4.81 56.49 4.77L56.49 4.77Q58.04 4.25 59.12 3.47L59.12 3.47Q59.16 3.45 59.18 3.45L59.18 3.45L59.21 3.45Q59.23 3.45 59.25 3.47L59.25 3.47L59.25 12.47Q59.25 13.06 59.51 13.43Q59.78 13.80 60.27 13.80L60.27 13.80Q60.48 13.80 60.48 14.01L60.48 14.01L60.48 14.43Q60.48 14.64 60.27 14.64L60.27 14.64L56.26 14.64Q56.05 14.64 56.05 14.43ZM60.79 11.08L60.79 11.08Q60.79 10.33 60.98 9.71Q61.17 9.10 61.49 8.69Q61.81 8.29 62.24 8.01Q62.68 7.73 63.15 7.61Q63.62 7.49 64.13 7.49L64.13 7.49Q64.66 7.49 65.14 7.67Q65.61 7.85 65.95 8.13Q66.28 8.42 66.52 8.78Q66.77 9.14 66.89 9.50Q67.01 9.86 67.01 10.19L67.01 10.19Q67.01 10.31 66.89 10.36L66.89 10.36L62.83 12.14Q63.10 12.79 63.63 13.22Q64.17 13.64 64.93 13.64L64.93 13.64Q65.40 13.64 65.88 13.38Q66.36 13.13 66.71 12.61L66.71 12.61Q66.75 12.55 66.83 12.55L66.83 12.55Q66.92 12.55 67.39 12.82L67.39 12.82Q67.44 12.86 67.44 12.93L67.44 12.93Q67.44 13.02 67.35 13.18L67.35 13.18Q66.47 14.81 64.55 14.81L64.55 14.81Q63.42 14.81 62.56 14.30Q61.69 13.79 61.24 12.94Q60.79 12.10 60.79 11.08ZM62.87 9.05Q62.53 9.50 62.53 10.20Q62.53 10.90 62.66 11.27L62.66 11.27L64.91 10.13Q64.91 9.47 64.59 9.03Q64.27 8.59 63.79 8.59L63.79 8.59Q63.22 8.59 62.87 9.05Z"></path></g><!----><!----></svg>